# xmcd
#
# Track frame offsets: 
#        150
#        16262
#        29461
#        44077
#        58896
#        72431
#        90882
#        106092
#        122669
#        138841
#        153817
#        171241
#        185283
#        198825
#        214101
#        228936
#        244093
#        258191
#        273065
#        286866
#
# Disc length: 4040 seconds
#
# Revision: 0
# Processed by: cddbd v1.5.2PL0 Copyright (c) Steve Scherf et al.
# Submitted via: ExactAudioCopy v1.3
#
DISCID=0a0fc614
DTITLE=Diverse - Ballermann Fussballhits 2018
DYEAR=2018
DGENRE=Humour
TTITLE0=Alm Klausi - Mama Lauda
TTITLE1=Jörg und Dragan (Die Autohändler) - Fiderallala
TTITLE2=Ikke Hüftgold - Modeste Song
TTITLE3=Axel Fischer - Steht auf für den Weltmeister
TTITLE4=Andy Bar - Mein Herz schlägt für den Ballermann
TTITLE5=Tobee - Helikopter 117
TTITLE6=Peter Wackel - Ich verkaufe meinen Körper
TTITLE7=Willi Herren - Nachtischlampe
TTITLE8=Schnitte Schlagermaffia - Na Na Hey Hey 
TTITLE9=Ina Colada - Ein schöner Tag
TTITLE10=DJ Hulpa - Die erste Reihe hüpft
TTITLE11=Rick Arena - Wir saufen International
TTITLE12=Ikke Hüftgold - Dont take me Home
TTITLE13=Tim Toupe - Ich liebe Dich
TTITLE14=DJ Düse - Voll wie Düse
TTITLE15=Vroni - Schenk mir keine Blumen
TTITLE16=Fussballhelden - Die Nummer 1 sind wir
TTITLE17=Andy Bar - Heute Abend feiern wir Weltpokal
TTITLE18=Sabbotage - Hömma Samma Womma Nomma
TTITLE19=Mark Morris - Fottballs is comin home
EXTD=
EXTT0=
EXTT1=
EXTT2=
EXTT3=
EXTT4=
EXTT5=
EXTT6=
EXTT7=
EXTT8=
EXTT9=
EXTT10=
EXTT11=
EXTT12=
EXTT13=
EXTT14=
EXTT15=
EXTT16=
EXTT17=
EXTT18=
EXTT19=
PLAYORDER=
